<svg width="24" height="24" viewBox="0 0 24 24" fill="none" xmlns="http://www.w3.org/2000/svg">
<path d="M2 12C2 6.47715 6.47715 2 12 2C17.5228 2 22 6.47715 22 12V20C22 21.1046 21.1046 22 20 22H12C6.47715 22 2 17.5228 2 12Z" fill="#242424"/>
<path d="M19.5 12C19.5 7.85786 16.1421 4.5 12 4.5C7.85786 4.5 4.5 7.85786 4.5 12C4.5 16.1421 7.85786 19.5 12 19.5H19C19.2761 19.5 19.5 19.2761 19.5 19V12ZM20.5 19C20.5 19.8284 19.8284 20.5 19 20.5H12C7.30558 20.5 3.5 16.6944 3.5 12C3.5 7.30558 7.30558 3.5 12 3.5C16.6944 3.5 20.5 7.30558 20.5 12V19Z" fill="white"/>
<path d="M12 8C13.1046 8 14 8.89543 14 10C14 10.6851 13.655 11.289 13.1299 11.6494L13.9043 15.5215C13.9538 15.769 13.7641 16 13.5117 16H10.4883C10.2359 16 10.0462 15.769 10.0957 15.5215L10.8691 11.6494C10.3444 11.2889 10 10.6848 10 10C10 8.89543 10.8954 8 12 8Z" fill="white"/>
</svg>
