<svg width="33" height="32" viewBox="0 0 33 32" fill="none" xmlns="http://www.w3.org/2000/svg">
<g clip-path="url(#clip0_5_1250)">
<path d="M16.8333 32C25.6698 32 32.8333 24.8366 32.8333 16C32.8333 7.16344 25.6698 0 16.8333 0C7.9967 0 0.833252 7.16344 0.833252 16C0.833252 24.8366 7.9967 32 16.8333 32Z" fill="#EDEDED"/>
<path fill-rule="evenodd" clip-rule="evenodd" d="M25.5531 16.2095C25.5531 15.5563 25.4945 14.9283 25.3857 14.3254H16.7107V17.8884H21.6678C21.4543 19.0397 20.8054 20.0153 19.8298 20.6684V22.9795H22.8066C24.5484 21.3759 25.5531 19.0146 25.5531 16.2095Z" fill="#4285F4"/>
<path fill-rule="evenodd" clip-rule="evenodd" d="M16.7105 25.2107C19.1974 25.2107 21.2823 24.3859 22.8064 22.9792L19.8296 20.668C19.0048 21.2207 17.9497 21.5472 16.7105 21.5472C14.3114 21.5472 12.2808 19.927 11.5565 17.7499H8.47925V20.1364C9.99486 23.1467 13.1098 25.2107 16.7105 25.2107Z" fill="#34A853"/>
<path fill-rule="evenodd" clip-rule="evenodd" d="M11.5567 17.7502C11.3725 17.1975 11.2678 16.6071 11.2678 16.0001C11.2678 15.393 11.3725 14.8027 11.5567 14.25V11.8635H8.47946C7.85563 13.107 7.49976 14.5138 7.49976 16.0001C7.49976 17.4863 7.85563 18.8931 8.47946 20.1366L11.5567 17.7502Z" fill="#FBBC05"/>
<path fill-rule="evenodd" clip-rule="evenodd" d="M16.7105 10.4525C18.0628 10.4525 19.2769 10.9173 20.2315 11.83L22.8733 9.18814C21.2782 7.70184 19.1932 6.78912 16.7105 6.78912C13.1098 6.78912 9.99486 8.8532 8.47925 11.8635L11.5565 14.2499C12.2808 12.0728 14.3114 10.4525 16.7105 10.4525Z" fill="#EA4335"/>
</g>
<defs>
<clipPath id="clip0_5_1250">
<rect width="32" height="32" fill="white" transform="translate(0.833252)"/>
</clipPath>
</defs>
</svg>
