<svg width="33" height="32" viewBox="0 0 33 32" fill="none" xmlns="http://www.w3.org/2000/svg">
<g clip-path="url(#clip0_5_1236)">
<path d="M16.1667 32C25.0033 32 32.1667 24.8366 32.1667 16C32.1667 7.16344 25.0033 0 16.1667 0C7.33019 0 0.166748 7.16344 0.166748 16C0.166748 24.8366 7.33019 32 16.1667 32Z" fill="#FEE500"/>
<path d="M16.213 7.72211C11.2352 7.72211 7.2207 10.9336 7.2207 14.8325C7.2207 17.3632 8.89072 19.5792 11.3957 20.8445L10.5479 24.0112C10.5319 24.0586 10.5295 24.1096 10.5408 24.1583C10.5521 24.2071 10.5768 24.2519 10.6121 24.2874C10.6636 24.3327 10.7298 24.3578 10.7984 24.358C10.8553 24.3535 10.9092 24.3309 10.9525 24.2938L14.6009 21.8338C15.1394 21.908 15.6823 21.9466 16.226 21.9493C21.1975 21.9493 25.2183 18.7378 25.2183 14.8325C25.2183 10.9272 21.1846 7.72211 16.213 7.72211Z" fill="#392020"/>
<path d="M10.3675 13.7084H9.38474C9.26295 13.7119 9.14264 13.6807 9.03789 13.6184C8.9914 13.5893 8.95141 13.5509 8.92047 13.5055C8.88951 13.4602 8.86826 13.409 8.85805 13.3551C8.85493 13.3209 8.85493 13.2865 8.85805 13.2524C8.855 13.1884 8.86741 13.1246 8.89425 13.0665C8.92109 13.0083 8.96154 12.9575 9.0122 12.9183C9.12418 12.8372 9.25935 12.7944 9.39759 12.7963H12.3587C12.4814 12.7919 12.6025 12.8256 12.7055 12.8926C12.7531 12.9205 12.7939 12.9586 12.825 13.0041C12.8561 13.0497 12.8767 13.1015 12.8854 13.156C12.8885 13.188 12.8885 13.2203 12.8854 13.2524C12.8884 13.3172 12.876 13.3819 12.8492 13.4411C12.8224 13.5003 12.782 13.5522 12.7312 13.5927C12.622 13.6737 12.4881 13.7146 12.3522 13.7084H11.4016V17.087C11.4055 17.1589 11.3943 17.2309 11.3689 17.2984C11.3435 17.3658 11.3043 17.4272 11.2539 17.4787C11.2055 17.528 11.1474 17.5666 11.0832 17.592C11.0191 17.6174 10.9503 17.6293 10.8813 17.6266C10.7607 17.6299 10.6426 17.5914 10.5473 17.5173C10.4566 17.445 10.395 17.3424 10.3739 17.2283C10.3676 17.1814 10.3676 17.1339 10.3739 17.087L10.3675 13.7084Z" fill="#FEE500"/>
<path d="M13.1692 13.0467C13.1974 12.941 13.2637 12.8495 13.3554 12.7898C13.4531 12.7344 13.5644 12.7077 13.6766 12.7127H13.9207C14.0397 12.7084 14.1576 12.7373 14.2611 12.7962C14.3708 12.87 14.4488 12.9823 14.4795 13.1109L15.7641 16.74C15.7974 16.8347 15.8253 16.9312 15.8476 17.0291C15.8498 17.0697 15.8498 17.1104 15.8476 17.151C15.8498 17.2137 15.8383 17.276 15.8138 17.3337C15.7894 17.3913 15.7527 17.443 15.7063 17.4851C15.6613 17.5312 15.6073 17.5677 15.5476 17.592C15.4879 17.6161 15.4239 17.628 15.3594 17.6264C15.2604 17.6363 15.1609 17.6125 15.077 17.5589C14.9931 17.5053 14.9297 17.4249 14.897 17.331L14.6272 16.5409H12.9379L12.6681 17.331C12.6362 17.4269 12.5721 17.5088 12.4866 17.5625C12.4011 17.6165 12.2995 17.639 12.1993 17.6264C12.0906 17.6293 11.9843 17.5953 11.8974 17.5301C11.8127 17.4627 11.7556 17.3669 11.7368 17.2603C11.7334 17.224 11.7334 17.1873 11.7368 17.151C11.7258 17.0873 11.7258 17.0222 11.7368 16.9584C11.7368 16.8878 11.7818 16.8107 11.8074 16.74L13.1692 13.0467ZM13.8115 13.8882L13.2013 15.8151H14.4152L13.8115 13.8882Z" fill="#FEE500"/>
<path d="M15.9947 13.2525C15.9882 13.1083 16.039 12.9675 16.136 12.8607C16.1854 12.8109 16.2446 12.772 16.3098 12.7466C16.3751 12.7211 16.445 12.7096 16.515 12.7129C16.6353 12.7115 16.7527 12.7499 16.849 12.8221C16.9382 12.8975 16.9975 13.0022 17.0159 13.1175C17.0223 13.1623 17.0223 13.2077 17.0159 13.2525V16.6311H18.7823C18.9047 16.6295 19.0252 16.6628 19.1292 16.7274C19.1759 16.7562 19.2161 16.7946 19.2471 16.8399C19.2782 16.8853 19.2993 16.9367 19.309 16.9908C19.309 16.9908 19.309 17.0549 19.309 17.0871C19.3121 17.1511 19.2996 17.2148 19.2729 17.2728C19.246 17.3311 19.2055 17.382 19.155 17.4212C19.043 17.5021 18.9078 17.545 18.7695 17.5431H16.5985C16.4602 17.552 16.3228 17.516 16.2066 17.4404C16.1028 17.3628 16.0336 17.2474 16.014 17.1192C16.0093 17.0487 16.0093 16.9778 16.014 16.9072L15.9947 13.2525Z" fill="#FEE500"/>
<path d="M19.4248 13.2526C19.421 13.1088 19.4714 12.969 19.5661 12.8608C19.6624 12.7733 19.786 12.7216 19.9159 12.7146C20.0456 12.7076 20.174 12.7456 20.2791 12.8222C20.3703 12.8969 20.4319 13.0016 20.4525 13.1176C20.4557 13.1625 20.4557 13.2077 20.4525 13.2526V14.8262L22.0776 12.9506C22.1402 12.8866 22.2068 12.8266 22.2767 12.7708C22.3428 12.7315 22.4184 12.7115 22.4951 12.713C22.6074 12.7123 22.7172 12.746 22.8098 12.8093C22.8535 12.8387 22.8908 12.8767 22.9196 12.9208C22.9482 12.965 22.9677 13.0144 22.9768 13.0663C22.9794 13.079 22.9794 13.0921 22.9768 13.1048C22.9738 13.1197 22.9738 13.135 22.9768 13.1498C22.9767 13.2174 22.9589 13.2838 22.9255 13.3425C22.8914 13.4047 22.8504 13.4628 22.8034 13.5158L21.7372 14.6849L23.0218 16.676V16.7403C23.0885 16.8323 23.1405 16.9342 23.176 17.0422V17.0742C23.1834 17.1488 23.1727 17.2238 23.1447 17.2933C23.1167 17.3626 23.0724 17.4242 23.0154 17.4725C22.9082 17.5536 22.7772 17.5965 22.6429 17.5946C22.5536 17.5982 22.465 17.5782 22.386 17.5368C22.3004 17.4794 22.23 17.4022 22.1804 17.312L20.9856 15.385L20.414 15.9824V17.055C20.4178 17.1987 20.3674 17.3386 20.2727 17.4469C20.222 17.4965 20.1616 17.5352 20.0952 17.5606C20.029 17.5859 19.9583 17.5976 19.8874 17.5946C19.7688 17.5971 19.6532 17.5586 19.5597 17.4854C19.469 17.4131 19.4074 17.3104 19.3863 17.1963C19.38 17.1494 19.38 17.1019 19.3863 17.055L19.4248 13.2526Z" fill="#FEE500"/>
</g>
<defs>
<clipPath id="clip0_5_1236">
<rect width="32" height="32" fill="white" transform="translate(0.166748)"/>
</clipPath>
</defs>
</svg>
